<mxfile host="app.diagrams.net" modified="2022-01-27T09:48:54.356Z" agent="5.0 (Macintosh; Intel Mac OS X 10_15_7) AppleWebKit/537.36 (KHTML, like Gecko) Chrome/97.0.4692.99 Safari/537.36" etag="TA4Qg4xD_IBriSXRBOoP" version="15.7.3" type="github">
  <diagram id="kgpKYQtTHZ0yAKxKKP6v" name="Page-1">
    <mxGraphModel dx="1106" dy="702" grid="1" gridSize="10" guides="1" tooltips="1" connect="1" arrows="1" fold="1" page="1" pageScale="1" pageWidth="850" pageHeight="1100" math="0" shadow="0">
      <root>
        <mxCell id="0" />
        <mxCell id="1" parent="0" />
        <mxCell id="3nuBFxr9cyL0pnOWT2aG-1" value="DMS" style="shape=umlLifeline;perimeter=lifelinePerimeter;container=1;collapsible=0;recursiveResize=0;rounded=0;shadow=0;strokeWidth=1;" parent="1" vertex="1">
          <mxGeometry x="120" y="80" width="100" height="770" as="geometry" />
        </mxCell>
        <mxCell id="3nuBFxr9cyL0pnOWT2aG-2" value="" style="points=[];perimeter=orthogonalPerimeter;rounded=0;shadow=0;strokeWidth=1;" parent="3nuBFxr9cyL0pnOWT2aG-1" vertex="1">
          <mxGeometry x="45" y="70" width="10" height="590" as="geometry" />
        </mxCell>
        <mxCell id="f0pexSqiyzA-S4B7c4ag-7" value="3. 上传人群包到 S3" style="html=1;verticalAlign=bottom;endArrow=block;rounded=0;" edge="1" parent="3nuBFxr9cyL0pnOWT2aG-1">
          <mxGeometry width="80" relative="1" as="geometry">
            <mxPoint x="59" y="229" as="sourcePoint" />
            <mxPoint x="249" y="229" as="targetPoint" />
          </mxGeometry>
        </mxCell>
        <mxCell id="3nuBFxr9cyL0pnOWT2aG-5" value="MMS" style="shape=umlLifeline;perimeter=lifelinePerimeter;container=1;collapsible=0;recursiveResize=0;rounded=0;shadow=0;strokeWidth=1;" parent="1" vertex="1">
          <mxGeometry x="500" y="80" width="110" height="770" as="geometry" />
        </mxCell>
        <mxCell id="f0pexSqiyzA-S4B7c4ag-8" value="" style="html=1;points=[];perimeter=orthogonalPerimeter;" vertex="1" parent="3nuBFxr9cyL0pnOWT2aG-5">
          <mxGeometry x="50" y="301" width="10" height="280" as="geometry" />
        </mxCell>
        <mxCell id="f0pexSqiyzA-S4B7c4ag-18" value="循环" style="shape=umlFrame;whiteSpace=wrap;html=1;" vertex="1" parent="3nuBFxr9cyL0pnOWT2aG-5">
          <mxGeometry x="-190" y="411" width="300" height="200" as="geometry" />
        </mxCell>
        <mxCell id="f0pexSqiyzA-S4B7c4ag-1" value="Amazon" style="shape=umlLifeline;perimeter=lifelinePerimeter;container=1;collapsible=0;recursiveResize=0;rounded=0;shadow=0;strokeWidth=1;" vertex="1" parent="1">
          <mxGeometry x="325" y="80" width="100" height="770" as="geometry" />
        </mxCell>
        <mxCell id="f0pexSqiyzA-S4B7c4ag-11" value="" style="html=1;points=[];perimeter=orthogonalPerimeter;" vertex="1" parent="f0pexSqiyzA-S4B7c4ag-1">
          <mxGeometry x="44" y="210" width="10" height="80" as="geometry" />
        </mxCell>
        <mxCell id="f0pexSqiyzA-S4B7c4ag-10" value="5. 通知人群包信息" style="html=1;verticalAlign=bottom;endArrow=block;rounded=0;" edge="1" parent="f0pexSqiyzA-S4B7c4ag-1">
          <mxGeometry width="80" relative="1" as="geometry">
            <mxPoint x="-146" y="330.46" as="sourcePoint" />
            <mxPoint x="205" y="330" as="targetPoint" />
          </mxGeometry>
        </mxCell>
        <mxCell id="f0pexSqiyzA-S4B7c4ag-2" value="MDP" style="shape=umlLifeline;perimeter=lifelinePerimeter;container=1;collapsible=0;recursiveResize=0;rounded=0;shadow=0;strokeWidth=1;" vertex="1" parent="1">
          <mxGeometry x="650" y="80" width="100" height="770" as="geometry" />
        </mxCell>
        <mxCell id="f0pexSqiyzA-S4B7c4ag-3" value="" style="html=1;points=[];perimeter=orthogonalPerimeter;" vertex="1" parent="1">
          <mxGeometry x="169" y="180" width="10" height="40" as="geometry" />
        </mxCell>
        <mxCell id="f0pexSqiyzA-S4B7c4ag-4" value="1. 清洗基础数据" style="edgeStyle=orthogonalEdgeStyle;html=1;align=left;spacingLeft=2;endArrow=block;rounded=0;entryX=1;entryY=0;" edge="1" target="f0pexSqiyzA-S4B7c4ag-3" parent="1">
          <mxGeometry relative="1" as="geometry">
            <mxPoint x="174" y="160" as="sourcePoint" />
            <Array as="points">
              <mxPoint x="204" y="160" />
            </Array>
          </mxGeometry>
        </mxCell>
        <mxCell id="f0pexSqiyzA-S4B7c4ag-5" value="" style="html=1;points=[];perimeter=orthogonalPerimeter;" vertex="1" parent="1">
          <mxGeometry x="168" y="247" width="10" height="40" as="geometry" />
        </mxCell>
        <mxCell id="f0pexSqiyzA-S4B7c4ag-6" value="2. 清洗人群包数据" style="edgeStyle=orthogonalEdgeStyle;html=1;align=left;spacingLeft=2;endArrow=block;rounded=0;entryX=1;entryY=0;" edge="1" parent="1" target="f0pexSqiyzA-S4B7c4ag-5">
          <mxGeometry relative="1" as="geometry">
            <mxPoint x="173" y="227" as="sourcePoint" />
            <Array as="points">
              <mxPoint x="203" y="227" />
            </Array>
          </mxGeometry>
        </mxCell>
        <mxCell id="f0pexSqiyzA-S4B7c4ag-12" value="6. 返回成功状态" style="html=1;verticalAlign=bottom;endArrow=open;dashed=1;endSize=8;rounded=0;" edge="1" parent="1">
          <mxGeometry relative="1" as="geometry">
            <mxPoint x="530" y="447" as="sourcePoint" />
            <mxPoint x="180" y="447" as="targetPoint" />
          </mxGeometry>
        </mxCell>
        <mxCell id="f0pexSqiyzA-S4B7c4ag-9" value="4 返回 S3 文件地址" style="html=1;verticalAlign=bottom;endArrow=open;dashed=1;endSize=8;rounded=0;exitX=-0.489;exitY=0.226;exitDx=0;exitDy=0;exitPerimeter=0;" edge="1" parent="1">
          <mxGeometry relative="1" as="geometry">
            <mxPoint x="364.1099999999999" y="340.08000000000004" as="sourcePoint" />
            <mxPoint x="190" y="340" as="targetPoint" />
          </mxGeometry>
        </mxCell>
        <mxCell id="f0pexSqiyzA-S4B7c4ag-13" value="" style="html=1;points=[];perimeter=orthogonalPerimeter;" vertex="1" parent="1">
          <mxGeometry x="371" y="498" width="10" height="93" as="geometry" />
        </mxCell>
        <mxCell id="f0pexSqiyzA-S4B7c4ag-14" value="7. 下载人群包数据" style="html=1;verticalAlign=bottom;endArrow=block;rounded=0;" edge="1" parent="1">
          <mxGeometry width="80" relative="1" as="geometry">
            <mxPoint x="540" y="523" as="sourcePoint" />
            <mxPoint x="390" y="523" as="targetPoint" />
          </mxGeometry>
        </mxCell>
        <mxCell id="f0pexSqiyzA-S4B7c4ag-15" value="8. 返回人群包信息" style="html=1;verticalAlign=bottom;endArrow=open;dashed=1;endSize=8;rounded=0;" edge="1" parent="1">
          <mxGeometry relative="1" as="geometry">
            <mxPoint x="390" y="559" as="sourcePoint" />
            <mxPoint x="540" y="559" as="targetPoint" />
          </mxGeometry>
        </mxCell>
        <mxCell id="f0pexSqiyzA-S4B7c4ag-16" value="" style="html=1;points=[];perimeter=orthogonalPerimeter;" vertex="1" parent="1">
          <mxGeometry x="553" y="593" width="10" height="40" as="geometry" />
        </mxCell>
        <mxCell id="f0pexSqiyzA-S4B7c4ag-17" value="9. 保存数据库" style="edgeStyle=orthogonalEdgeStyle;html=1;align=left;spacingLeft=2;endArrow=block;rounded=0;entryX=1;entryY=0;" edge="1" parent="1">
          <mxGeometry relative="1" as="geometry">
            <mxPoint x="555" y="573" as="sourcePoint" />
            <Array as="points">
              <mxPoint x="585" y="573" />
            </Array>
            <mxPoint x="565" y="593" as="targetPoint" />
          </mxGeometry>
        </mxCell>
        <mxCell id="f0pexSqiyzA-S4B7c4ag-19" value="10. 请求人群包表名" style="html=1;verticalAlign=bottom;endArrow=block;rounded=0;" edge="1" parent="1">
          <mxGeometry width="80" relative="1" as="geometry">
            <mxPoint x="692" y="719" as="sourcePoint" />
            <mxPoint x="565" y="719" as="targetPoint" />
          </mxGeometry>
        </mxCell>
        <mxCell id="f0pexSqiyzA-S4B7c4ag-20" value="" style="html=1;points=[];perimeter=orthogonalPerimeter;" vertex="1" parent="1">
          <mxGeometry x="544" y="757" width="10" height="40" as="geometry" />
        </mxCell>
        <mxCell id="f0pexSqiyzA-S4B7c4ag-21" value="11. 校验人群包是否有效" style="edgeStyle=orthogonalEdgeStyle;html=1;align=left;spacingLeft=2;endArrow=block;rounded=0;entryX=1;entryY=0;" edge="1" parent="1">
          <mxGeometry x="-0.0909" y="-93" relative="1" as="geometry">
            <mxPoint x="558" y="741" as="sourcePoint" />
            <Array as="points">
              <mxPoint x="503" y="741" />
              <mxPoint x="503" y="761" />
            </Array>
            <mxPoint x="549" y="761" as="targetPoint" />
            <mxPoint as="offset" />
          </mxGeometry>
        </mxCell>
        <mxCell id="f0pexSqiyzA-S4B7c4ag-22" value="" style="html=1;points=[];perimeter=orthogonalPerimeter;" vertex="1" parent="1">
          <mxGeometry x="550" y="707" width="10" height="143" as="geometry" />
        </mxCell>
        <mxCell id="f0pexSqiyzA-S4B7c4ag-23" value="12.返回有效的人群包表" style="html=1;verticalAlign=bottom;endArrow=open;dashed=1;endSize=8;rounded=0;" edge="1" parent="1">
          <mxGeometry relative="1" as="geometry">
            <mxPoint x="567" y="821" as="sourcePoint" />
            <mxPoint x="690" y="821" as="targetPoint" />
          </mxGeometry>
        </mxCell>
        <mxCell id="f0pexSqiyzA-S4B7c4ag-24" value="" style="html=1;points=[];perimeter=orthogonalPerimeter;" vertex="1" parent="1">
          <mxGeometry x="696" y="705" width="10" height="143" as="geometry" />
        </mxCell>
      </root>
    </mxGraphModel>
  </diagram>
</mxfile>
